<?xml version="1.0" encoding="iso-8859-1"?>
<!-- Generator: Adobe Illustrator 19.0.0, SVG Export Plug-In . SVG Version: 6.00 Build 0)  -->
<svg xmlns="http://www.w3.org/2000/svg" xmlns:xlink="http://www.w3.org/1999/xlink" version="1.1" id="Layer_1" x="0px" y="0px" viewBox="0 0 512 512" style="enable-background:new 0 0 512 512;" xml:space="preserve" width="512px" height="512px">
<g>
	<g>
		<path d="M443.542,75.077H68.458C30.71,75.077,0,105.787,0,143.536v224.929c0,37.748,30.71,68.458,68.458,68.458h375.084    c37.748,0,68.458-30.71,68.458-68.458V143.536C512,105.787,481.29,75.077,443.542,75.077z M154.212,403.531H68.458    c-19.336,0.001-35.066-15.73-35.066-35.067V242.169h50.47c-6.435,8.622-9.915,19.038-9.915,29.991    c0,13.429,5.229,26.055,14.726,35.551c9.803,9.803,22.674,14.703,35.551,14.702c10.563-0.001,21.124-3.307,29.99-9.905V403.531z     M112.275,260.228c3.719-3.525,18.911-8.773,37.102-13.223c-4.45,18.198-9.698,33.391-13.215,37.094    c-6.585,6.583-17.297,6.584-23.879,0c-3.189-3.189-4.945-7.43-4.945-11.94C107.337,267.654,109.09,263.417,112.275,260.228z     M107.337,178.788c0-4.51,1.755-8.751,4.945-11.941c3.189-3.189,7.43-4.945,11.94-4.945c4.507,0,8.743,1.753,11.933,4.939    c3.526,3.72,8.775,18.914,13.224,37.109c-18.188-4.445-33.382-9.695-37.096-13.222    C109.094,187.539,107.337,183.298,107.337,178.788z M154.213,138.427c-8.622-6.435-19.038-9.916-29.991-9.916    c-13.429,0-26.054,5.23-35.549,14.726c-9.497,9.495-14.726,22.122-14.726,35.552c0,10.952,3.48,21.369,9.915,29.99H33.391v-65.243    c0-19.336,15.731-35.066,35.066-35.066h85.756V138.427z M478.609,368.464c0,19.337-15.731,35.068-35.066,35.068H187.605v-91.022    c8.865,6.598,19.426,9.904,29.99,9.904c12.875,0,25.75-4.901,35.551-14.702c17.844-17.844,19.439-45.871,4.798-65.542h220.665    V368.464z M229.545,190.719c-3.722,3.527-18.916,8.775-37.111,13.224c4.444-18.188,9.695-33.382,13.221-37.095    c3.189-3.189,7.431-4.945,11.941-4.945c4.511,0,8.751,1.756,11.941,4.945C236.117,173.429,236.12,184.134,229.545,190.719z     M229.535,284.101c-6.581,6.581-17.286,6.584-23.871,0.009c-3.526-3.72-8.775-18.915-13.224-37.11    c18.188,4.444,33.381,9.695,37.096,13.221C236.119,266.804,236.119,277.517,229.535,284.101z M478.609,208.779H257.943    c14.641-19.672,13.046-47.698-4.798-65.542c-9.495-9.496-22.122-14.726-35.551-14.726c-10.952,0-21.368,3.48-29.99,9.915v-29.959    h255.938c19.336,0,35.066,15.731,35.066,35.068V208.779z" fill="#00B43A"/>
	</g>
</g>
<g>
	<g>
		<path d="M420.975,339.234c-2.211,7.072-8.398,9.615-13.371,9.615c-4.311,0-7.847-1.879-10.499-4.863h10.056l4.421-11.051h-19.45    c-0.221-1.547-0.332-3.094-0.332-4.753h18.455l4.421-11.051h-20.777c2.432-5.415,6.742-9.614,13.482-9.614    c4.863,0,11.383,2.1,13.925,9.725l16.466-11.714c-4.973-10.278-16.023-17.13-29.949-17.13c-19.561,0-32.601,13.372-36.579,28.733    h-4.421l-4.421,11.051h7.515c0.11,1.657,0.11,3.204,0.332,4.753h-3.426l-4.421,11.051h10.94    c5.747,13.482,18.015,23.982,33.818,23.982c12.488,0,26.966-6.632,31.386-18.235L420.975,339.234z" fill="#00B43A"/>
	</g>
</g>
<g>
</g>
<g>
</g>
<g>
</g>
<g>
</g>
<g>
</g>
<g>
</g>
<g>
</g>
<g>
</g>
<g>
</g>
<g>
</g>
<g>
</g>
<g>
</g>
<g>
</g>
<g>
</g>
<g>
</g>
</svg>
